<svg width="92" height="92" viewBox="0 0 92 92" fill="none" xmlns="http://www.w3.org/2000/svg">
<g clip-path="url(#clip0_6_119)">
<path d="M8.58274 27.4468C3.34959 30.5477 0.255514 34.3198 0.255514 38.3975C0.255514 47.8401 16.7245 55.6567 38.3292 57.1923L8.58274 27.4468Z" fill="#ED2647"/>
<path d="M46.06 19.313C43.4847 19.313 40.9769 19.4252 38.516 19.5924L72.795 53.876C84.3274 50.4074 91.8645 44.7758 91.8645 38.3975C91.8645 27.8567 71.3555 19.313 46.06 19.313Z" fill="#ED2647"/>
<path d="M49.3475 57.412C54.536 57.2585 59.5012 56.7639 64.0713 55.9474L10.029 1.90485C7.79263 -0.331563 4.16606 -0.331563 1.9331 1.90485C-0.3033 4.13782 -0.3033 7.7644 1.9331 10.0008L49.3475 57.412Z" fill="#ED2647"/>
<path d="M2.81598 54.7368C5.4211 62.9599 9.86527 70.3962 15.5244 76.5833L15.5198 88.3951C24.6612 90.628 34.9042 91.8361 46.0599 91.8361C57.2121 91.8361 67.4562 90.628 76.5919 88.3997L76.5965 76.5833C82.4961 70.1386 86.7501 62.6575 89.2556 54.7654C79.0195 61.5983 62.4841 65.1173 46.0599 65.1173C29.6104 65.1173 13.0487 61.5869 2.81598 54.7368Z" fill="#ED2647"/>
</g>
<defs>
<clipPath id="clip0_6_119">
<rect width="91.6088" height="91.6088" fill="white" transform="translate(0.255516 0.227539)"/>
</clipPath>
</defs>
</svg>
