<svg width="662" height="92" viewBox="0 0 662 92" fill="none" xmlns="http://www.w3.org/2000/svg">
<g clip-path="url(#clip0_26_1051)">
<g clip-path="url(#clip1_26_1051)">
<path d="M293.583 27.4468C288.35 30.5477 285.256 34.3198 285.256 38.3975C285.256 47.8401 301.724 55.6567 323.329 57.1923L293.583 27.4468Z" fill="#ED2647"/>
<path d="M331.06 19.313C328.485 19.313 325.977 19.4252 323.516 19.5924L357.795 53.876C369.327 50.4074 376.865 44.7758 376.865 38.3975C376.865 27.8567 356.356 19.313 331.06 19.313Z" fill="#ED2647"/>
<path d="M334.348 57.412C339.536 57.2585 344.501 56.7639 349.071 55.9474L295.029 1.90485C292.793 -0.331563 289.166 -0.331563 286.933 1.90485C284.697 4.13782 284.697 7.7644 286.933 10.0008L334.348 57.412Z" fill="#ED2647"/>
<path d="M287.816 54.7368C290.421 62.9599 294.865 70.3962 300.524 76.5833L300.52 88.3951C309.661 90.628 319.904 91.8361 331.06 91.8361C342.212 91.8361 352.456 90.628 361.592 88.3997L361.596 76.5833C367.496 70.1386 371.75 62.6575 374.256 54.7654C364.02 61.5983 347.484 65.1173 331.06 65.1173C314.61 65.1173 298.049 61.5869 287.816 54.7368Z" fill="#ED2647"/>
</g>
</g>
<path d="M661.927 84.1855H390.25V90.1634H661.927V84.1855Z" fill="#ED2647"/>
<path d="M271.871 84.1855H0.193359V90.1634H271.871V84.1855Z" fill="#ED2647"/>
<path d="M661.927 72.23H390.25V78.2078H661.927V72.23Z" fill="#ED2647"/>
<path d="M271.871 72.23H0.193359V78.2078H271.871V72.23Z" fill="#ED2647"/>
<defs>
<clipPath id="clip0_26_1051">
<rect width="118.378" height="91.6088" fill="white" transform="translate(271.871 0.227539)"/>
</clipPath>
<clipPath id="clip1_26_1051">
<rect width="91.6088" height="91.6088" fill="white" transform="translate(285.256 0.227539)"/>
</clipPath>
</defs>
</svg>
