<svg xmlns="http://www.w3.org/2000/svg" version="1.1" xmlns:xlink="http://www.w3.org/1999/xlink" xmlns:svgjs="http://svgjs.dev/svgjs" width="1500" height="393" viewBox="0 0 1500 393"><g transform="matrix(1,0,0,1,-0.9090909090909918,-0.514170912438999)"><svg viewBox="0 0 396 104" data-background-color="#ffffff" preserveAspectRatio="xMidYMid meet" height="393" width="1500" xmlns="http://www.w3.org/2000/svg" xmlns:xlink="http://www.w3.org/1999/xlink"><g id="tight-bounds" transform="matrix(1,0,0,1,0.2400000000000091,0.13606558497113497)"><svg viewBox="0 0 395.52 103.72786883005773" height="103.72786883005773" width="395.52"><g><svg viewBox="0 0 395.52 103.72786883005773" height="103.72786883005773" width="395.52"><g transform="matrix(1,0,0,1,0,64.1079842926884)"><svg viewBox="0 0 395.52 39.61988453736932" height="39.61988453736932" width="395.52"><g id="textblocktransform"><svg viewBox="0 0 395.52 39.61988453736932" height="39.61988453736932" width="395.52" id="textblock"><g><svg viewBox="0 0 395.52 39.61988453736932" height="39.61988453736932" width="395.52"><g transform="matrix(1,0,0,1,0,0)"><svg width="395.52" viewBox="-0.27 -36.91 469.37 47.019999999999996" height="39.61988453736932" data-palette-color="#ff0000"><path d="M18.16-36.11L18.16-36.11Q21.22-36.11 22.31-36.3L22.31-36.3 22.31-36.21Q22.46-35.18 23.21-32.71 23.95-30.25 24.19-29.69L24.19-29.69 33.23-6.15Q33.52-5.42 33.96-5.02 34.4-4.61 35.35-4.61L35.35-4.61Q36.21-4.61 36.91-4.32 37.62-4.03 37.79-3.44L37.79-3.44Q37.7-1.88 37.7-0.93L37.7-0.93Q37.7 0 37.28 0.27L37.28 0.27Q33.62 0 31.13 0L31.13 0Q26.15 0 24.32 0.27L24.32 0.27Q23.9-1.15 23.9-3.64L23.9-3.64Q23.9-4.22 24.77-4.39 25.63-4.57 26.5-4.69 27.37-4.81 27.37-5.3L27.37-5.3Q27.37-5.64 27.15-6.2L27.15-6.2 24.83-12.77 12.01-12.77 9.79-6.2Q9.57-5.54 9.57-5.3L9.57-5.3Q9.57-4.81 10.45-4.69 11.33-4.57 12.21-4.39 13.09-4.22 13.09-3.64L13.09-3.64Q12.79-0.51 12.43 0.27L12.43 0.27Q8.57 0 6.01 0L6.01 0Q4.52 0 0.15 0.27L0.15 0.27Q-0.27 0-0.27-0.93L-0.27-0.93Q-0.27-1.88-0.12-3.44L-0.12-3.44Q0.05-4.03 0.73-4.32 1.42-4.61 2.27-4.61L2.27-4.61Q3.22-4.61 3.66-5.02 4.1-5.42 4.39-6.15L4.39-6.15 13.43-30.18Q13.62-30.71 13.62-30.98L13.62-30.98Q13.62-31.47 13.11-31.63 12.6-31.79 12-31.74 11.4-31.69 10.89-31.9 10.38-32.1 10.38-32.64L10.38-32.64Q10.38-32.69 10.42-32.89L10.42-32.89Q10.77-35.62 11.28-36.3L11.28-36.3Q14.28-36.11 18.16-36.11ZM19.14-28.88L18.48-30.66Q15.92-24.41 13.28-16.48L13.28-16.48 23.54-16.48Q22.36-20.02 21.09-23.56 19.82-27.1 19.14-28.88L19.14-28.88ZM40.26-36.69L40.26-36.69Q44.31-36.38 46.09-36.38L46.09-36.38Q48-36.38 52.12-36.69L52.12-36.69Q52.66-36.3 52.91-35.12 53.17-33.94 53.17-32.67L53.17-32.67Q53.17-32.08 52.37-31.79 51.56-31.49 50.44-31.49L50.44-31.49Q49.9-31.49 49.56-31.36 49.22-31.23 49.08-30.96 48.95-30.69 48.91-30.48 48.87-30.27 48.87-29.91L48.87-29.91 48.87-6.47Q48.87-6.1 48.91-5.9 48.95-5.69 49.08-5.42 49.22-5.15 49.56-5.02 49.9-4.88 50.44-4.88L50.44-4.88Q51.56-4.88 52.37-4.59 53.17-4.3 53.17-3.71L53.17-3.71Q53.17-2.44 52.91-1.28 52.66-0.12 52.12 0.27L52.12 0.27Q48.63 0 46.09 0L46.09 0Q43.7 0 40.26 0.27L40.26 0.27Q39.6-0.12 39.28-1.29 38.96-2.47 38.96-3.71L38.96-3.71Q38.96-4.3 39.77-4.59 40.57-4.88 41.7-4.88L41.7-4.88Q42.65-4.88 42.94-5.29 43.23-5.69 43.23-6.42L43.23-6.42 43.23-30Q43.23-30.74 42.94-31.14 42.65-31.54 41.7-31.54L41.7-31.54Q38.96-31.54 38.96-32.81L38.96-32.81Q38.96-34.01 39.28-35.17 39.6-36.33 40.26-36.69ZM66.01-32.28L66.01-20.58 76.17-20.58Q79.22-20.58 80.98-22.27 82.73-23.95 82.73-26.22L82.73-26.22Q82.73-28.69 80.89-30.48 79.05-32.28 75.68-32.28L75.68-32.28 66.01-32.28ZM57.39-36.69L57.39-36.69Q60.62-36.38 66.38-36.38L66.38-36.38Q68.45-36.38 71.56-36.57 74.68-36.77 75.68-36.77L75.68-36.77Q78.75-36.77 81.23-35.88 83.71-34.99 85.24-33.51 86.76-32.03 87.57-30.2 88.37-28.37 88.37-26.39L88.37-26.39Q88.37-25.15 88-23.89 87.62-22.63 86.81-21.47 86.01-20.31 84.89-19.4 83.78-18.48 82.18-17.88 80.59-17.29 78.75-17.21L78.75-17.21Q80.61-16.6 81.93-15.08 83.25-13.55 83.92-11.83 84.59-10.11 85.16-8.46 85.74-6.81 86.54-5.73 87.35-4.64 88.52-4.64L88.52-4.64Q91.99-4.64 91.99-4L91.99-4 91.99-3.1Q91.99-2.27 91.87-1.76 91.74-1.25 91.3-0.67 90.86-0.1 89.86 0.18 88.86 0.46 87.28 0.46L87.28 0.46Q85.71 0.46 84.53-0.06 83.34-0.59 82.58-1.48 81.81-2.37 81.22-3.54 80.63-4.71 80.16-6.03 79.68-7.35 79.21-8.69 78.73-10.03 78.06-11.32 77.39-12.6 76.52-13.64 75.65-14.67 74.3-15.43 72.94-16.19 71.19-16.46L71.19-16.46 66.01-16.46 66.01-6.47Q66.01-6.1 66.05-5.9 66.08-5.69 66.22-5.42 66.35-5.15 66.69-5.02 67.04-4.88 67.57-4.88L67.57-4.88Q68.7-4.88 69.5-4.59 70.31-4.3 70.31-3.71L70.31-3.71Q70.31-0.46 69.5 0.27L69.5 0.27Q65.84 0 63.23 0L63.23 0Q60.98 0 57.39 0.27L57.39 0.27Q56.73-0.12 56.42-1.29 56.1-2.47 56.1-3.71L56.1-3.71Q56.1-4.3 56.9-4.59 57.71-4.88 58.83-4.88L58.83-4.88Q59.79-4.88 60.08-5.29 60.37-5.69 60.37-6.42L60.37-6.42 60.37-30Q60.37-30.74 60.08-31.14 59.79-31.54 58.83-31.54L58.83-31.54Q56.1-31.54 56.1-32.81L56.1-32.81Q56.1-34.01 56.42-35.17 56.73-36.33 57.39-36.69ZM119.16-14.43L119.16-14.43Q119.16-13.31 118.58-12.71 118.01-12.11 116.42-12.11L116.42-12.11 99.58-12.11Q99.68-9.89 100.36-8.28 101.04-6.67 102.17-5.75 103.29-4.83 104.63-4.41 105.97-3.98 107.56-3.98L107.56-3.98Q109.78-3.98 112.1-4.76 114.42-5.54 116.3-6.96L116.3-6.96Q117.69-5.32 117.69-3.74L117.69-3.74Q117.69-2.69 116.3-1.67 114.91-0.66 112.54 0 110.17 0.66 107.61 0.66L107.61 0.66Q105.51 0.66 103.62 0.24 101.73-0.17 99.91-1.21 98.09-2.25 96.77-3.83 95.45-5.42 94.65-7.91 93.84-10.4 93.84-13.55L93.84-13.55Q93.84-16.63 95.01-19.19 96.18-21.75 98.11-23.38 100.04-25 102.42-25.88 104.8-26.76 107.32-26.76L107.32-26.76Q109.17-26.76 110.88-26.29 112.59-25.83 114.1-24.84 115.62-23.85 116.74-22.42 117.86-21 118.51-18.95 119.16-16.89 119.16-14.43ZM99.72-15.89L114.23-15.89Q114.01-19.29 112.09-21.06 110.17-22.83 107.51-22.83L107.51-22.83Q104.68-22.83 102.37-20.94 100.07-19.04 99.72-15.89L99.72-15.89ZM144.33-20.21L144.33-20.21Q144.33-18.77 143.31-17.77 142.3-16.77 140.13-16.77L140.13-16.77Q139.61-16.77 139.5-17 139.39-17.24 139.3-18.24L139.3-18.24 138.93-21.73Q138.76-21.85 138.45-22.01 138.15-22.17 137.09-22.45 136.03-22.73 134.85-22.73L134.85-22.73Q131.14-22.73 128.86-19.86 126.58-16.99 126.58-13.04L126.58-13.04Q126.58-8.76 128.8-6.37 131.02-3.98 135.22-3.98L135.22-3.98Q137.17-3.98 139.48-4.81 141.79-5.64 143.25-6.93L143.25-6.93Q144.64-5.3 144.64-3.81L144.64-3.81Q144.64-2.59 143.2-1.54 141.76-0.49 139.5 0.09 137.25 0.66 134.8 0.66L134.8 0.66Q131.97 0.66 129.47-0.23 126.97-1.12 125.04-2.82 123.11-4.52 121.99-7.21 120.86-9.91 120.86-13.31L120.86-13.31Q120.86-16.46 122.05-19.06 123.23-21.66 125.19-23.3 127.14-24.95 129.57-25.84 132-26.73 134.56-26.73L134.56-26.73Q137.17-26.73 139.11-26.21 141.05-25.68 142.17-24.76 143.28-23.83 143.8-22.69 144.33-21.56 144.33-20.21ZM152.04-30.4L152.04-30.4Q151.45-30.4 150.84-30.51 150.23-30.62 149.51-30.91 148.79-31.2 148.34-31.84 147.89-32.47 147.89-33.35L147.89-33.35Q147.89-36.35 151.94-36.35L151.94-36.35Q153.09-36.35 153.88-36.06 154.68-35.77 155.05-35.28 155.43-34.79 155.58-34.33 155.72-33.86 155.72-33.33L155.72-33.33Q155.72-32.23 155.04-31.52 154.36-30.81 153.59-30.6 152.82-30.4 152.04-30.4ZM156.07-23.93L156.07-23.93 156.07-6.13Q156.07-5.76 156.1-5.55 156.14-5.35 156.27-5.08 156.41-4.81 156.75-4.68 157.09-4.54 157.63-4.54L157.63-4.54Q158.56-4.54 159.22-4.25 159.88-3.96 159.88-3.37L159.88-3.37Q159.88-0.51 159.07 0.2L159.07 0.2Q156.87 0 153.7 0L153.7 0Q150.4 0 147.55 0.2L147.55 0.2Q146.74-0.54 146.74-3.37L146.74-3.37Q146.74-3.96 147.4-4.25 148.06-4.54 148.99-4.54L148.99-4.54Q149.94-4.54 150.23-4.94 150.52-5.35 150.52-6.08L150.52-6.08 150.52-19.19Q150.52-20.48 149.78-21.02 149.04-21.56 146.91-21.66L146.91-21.66Q146.59-21.73 146.51-21.97 146.42-22.22 146.42-23.02L146.42-23.02Q146.42-24.27 146.69-25.22 146.96-26.17 147.23-26.32L147.23-26.32Q149.11-26.05 150.87-26.05L150.87-26.05Q152.04-26.05 153.33-26.18 154.63-26.32 154.7-26.32L154.7-26.32Q155.55-26.32 155.81-25.89 156.07-25.46 156.07-23.93ZM170.4-14.26L170.4-14.26 170.4-6.91Q171.69-5.27 173.78-4.37 175.86-3.47 178.13-3.47L178.13-3.47Q181.24-3.47 183.3-5.91 185.36-8.35 185.36-13.06L185.36-13.06Q185.36-17.58 183.13-20.08 180.89-22.58 177.77-22.58L177.77-22.58Q174.84-22.58 172.62-20.37 170.4-18.16 170.4-14.26ZM170.4-2.22L170.4-2.22 170.4 3.78Q170.4 4.15 170.43 4.36 170.47 4.57 170.6 4.83 170.74 5.1 171.08 5.24 171.42 5.37 171.96 5.37L171.96 5.37Q172.89 5.37 173.54 5.66 174.2 5.96 174.2 6.54L174.2 6.54Q174.2 9.4 173.4 10.11L173.4 10.11Q171.76 9.74 167.88 9.74L167.88 9.74Q163.71 9.74 161.87 10.11L161.87 10.11Q161.07 9.38 161.07 6.54L161.07 6.54Q161.07 5.96 161.73 5.66 162.39 5.37 163.32 5.37L163.32 5.37Q164.27 5.37 164.56 4.97 164.85 4.57 164.85 3.83L164.85 3.83 164.85-19.19Q164.85-20.48 164.11-21.02 163.36-21.56 161.24-21.66L161.24-21.66Q160.92-21.73 160.84-21.97 160.75-22.22 160.75-23.02L160.75-23.02Q160.75-24.27 161.02-25.22 161.29-26.17 161.56-26.32L161.56-26.32Q163.44-26.05 165.19-26.05L165.19-26.05Q166.29-26.05 167.51-26.18 168.74-26.32 168.81-26.32L168.81-26.32Q169.66-26.32 169.92-25.89 170.18-25.46 170.18-23.93L170.18-23.93 170.18-22.17Q171.44-24.37 173.76-25.55 176.08-26.73 178.57-26.73L178.57-26.73Q180.99-26.73 183.2-25.85 185.41-24.98 187.19-23.33 188.97-21.68 190.04-19.02 191.1-16.36 191.1-13.06 191.1-9.77 190.02-7.09 188.95-4.42 187.16-2.76 185.36-1.1 183.11-0.22 180.87 0.66 178.43 0.66L178.43 0.66Q173.57 0.66 170.4-2.22ZM218.15-14.43L218.15-14.43Q218.15-13.31 217.57-12.71 217-12.11 215.41-12.11L215.41-12.11 198.57-12.11Q198.66-9.89 199.35-8.28 200.03-6.67 201.15-5.75 202.28-4.83 203.62-4.41 204.96-3.98 206.55-3.98L206.55-3.98Q208.77-3.98 211.09-4.76 213.41-5.54 215.29-6.96L215.29-6.96Q216.68-5.32 216.68-3.74L216.68-3.74Q216.68-2.69 215.29-1.67 213.9-0.66 211.53 0 209.16 0.66 206.6 0.66L206.6 0.66Q204.5 0.66 202.61 0.24 200.71-0.17 198.9-1.21 197.08-2.25 195.76-3.83 194.44-5.42 193.63-7.91 192.83-10.4 192.83-13.55L192.83-13.55Q192.83-16.63 194-19.19 195.17-21.75 197.1-23.38 199.03-25 201.41-25.88 203.79-26.76 206.31-26.76L206.31-26.76Q208.16-26.76 209.87-26.29 211.58-25.83 213.09-24.84 214.61-23.85 215.73-22.42 216.85-21 217.5-18.95 218.15-16.89 218.15-14.43ZM198.71-15.89L213.21-15.89Q213-19.29 211.08-21.06 209.16-22.83 206.5-22.83L206.5-22.83Q203.67-22.83 201.36-20.94 199.05-19.04 198.71-15.89L198.71-15.89ZM254.2-11.52L254.2-11.52 254.23-1.29Q253.35-0.42 252.25-0.42L252.25-0.42Q251.98-0.42 251.7-0.48 251.42-0.54 251.1-0.67 250.79-0.81 250.59-0.89 250.4-0.98 250.02-1.18 249.64-1.39 249.54-1.44L249.54-1.44Q247.34-0.54 244.43 0.06 241.51 0.66 238.94 0.66L238.94 0.66Q235.28 0.66 232.21-0.39 229.13-1.44 226.98-3.22 224.83-5 223.33-7.39 221.83-9.77 221.12-12.43 220.41-15.09 220.41-17.92L220.41-17.92Q220.41-21.75 221.66-25.22 222.9-28.69 225.1-31.27 227.3-33.86 230.55-35.39 233.79-36.91 237.55-36.91L237.55-36.91Q240.53-36.91 243.64-35.85 246.76-34.79 248.56-32.71L248.56-32.71Q248.56-36.38 249.52-36.38L249.52-36.38 252.25-36.38Q253.42-36.38 253.42-33.84L253.42-33.84 253.42-27.81Q253.42-26.42 253.29-25.77 253.15-25.12 252.95-24.96 252.74-24.8 252.25-24.76L252.25-24.76 250.22-24.76Q250.03-24.76 249.53-25.32 249.03-25.88 248.37-26.72 247.71-27.56 246.65-28.55 245.59-29.54 244.39-30.38 243.19-31.23 241.5-31.79 239.8-32.35 237.97-32.35L237.97-32.35Q235.7-32.35 233.77-31.53 231.84-30.71 230.5-29.33 229.15-27.95 228.19-26.11 227.23-24.27 226.77-22.22 226.32-20.17 226.32-18.02L226.32-18.02Q226.32-15.97 226.85-14.03 227.37-12.08 228.47-10.35 229.57-8.62 231.12-7.31 232.67-6.01 234.86-5.24 237.04-4.47 239.6-4.47L239.6-4.47Q244.32-4.47 248.81-5.59L248.81-5.59 248.81-10.62Q248.81-11.45 248.69-12.02 248.56-12.6 248.21-13.18 247.86-13.77 247.06-14.06 246.27-14.36 245.07-14.36L245.07-14.36Q244.61-14.36 244.45-14.77 244.29-15.19 244.29-16.26L244.29-16.26Q244.29-17.9 245.1-19.19L245.1-19.19Q248.25-18.92 251.3-18.92L251.3-18.92Q252.54-18.92 253.76-18.98 254.98-19.04 255.77-19.12 256.55-19.19 256.72-19.19L256.72-19.19Q256.91-18.99 257.1-18.27 257.28-17.55 257.28-16.99L257.28-16.99Q257.28-16.04 256.96-15.49 256.65-14.94 256.19-14.7 255.74-14.45 255.29-14.18 254.84-13.92 254.52-13.27 254.2-12.62 254.2-11.52ZM284.6-14.43L284.6-14.43Q284.6-13.31 284.02-12.71 283.45-12.11 281.86-12.11L281.86-12.11 265.02-12.11Q265.11-9.89 265.8-8.28 266.48-6.67 267.6-5.75 268.73-4.83 270.07-4.41 271.41-3.98 273-3.98L273-3.98Q275.22-3.98 277.54-4.76 279.86-5.54 281.74-6.96L281.74-6.96Q283.13-5.32 283.13-3.74L283.13-3.74Q283.13-2.69 281.74-1.67 280.35-0.66 277.98 0 275.61 0.66 273.05 0.66L273.05 0.66Q270.95 0.66 269.06 0.24 267.17-0.17 265.35-1.21 263.53-2.25 262.21-3.83 260.89-5.42 260.08-7.91 259.28-10.4 259.28-13.55L259.28-13.55Q259.28-16.63 260.45-19.19 261.62-21.75 263.55-23.38 265.48-25 267.86-25.88 270.24-26.76 272.76-26.76L272.76-26.76Q274.61-26.76 276.32-26.29 278.03-25.83 279.54-24.84 281.06-23.85 282.18-22.42 283.3-21 283.95-18.95 284.6-16.89 284.6-14.43ZM265.16-15.89L279.67-15.89Q279.45-19.29 277.53-21.06 275.61-22.83 272.95-22.83L272.95-22.83Q270.12-22.83 267.81-20.94 265.5-19.04 265.16-15.89L265.16-15.89ZM317.09 0.2L317.09 0.2Q314.72 0 312.82 0L312.82 0Q311.57 0 310.11 0.1 308.64 0.2 308.18 0.2L308.18 0.2Q307.35 0.2 307.35-1.66L307.35-1.66 307.35-16.28Q307.35-19.46 306.32-20.94 305.3-22.41 303.64-22.41L303.64-22.41Q301.93-22.41 299.89-21.45 297.85-20.48 296.07-18.99L296.07-18.99 296.07-6.13Q296.07-5.76 296.11-5.55 296.14-5.35 296.28-5.08 296.41-4.81 296.75-4.68 297.09-4.54 297.63-4.54L297.63-4.54Q298.56-4.54 299.22-4.25 299.88-3.96 299.88-3.37L299.88-3.37Q299.88-0.51 299.07 0.2L299.07 0.2Q297.58 0 293.48 0 289.38 0 287.55 0.2L287.55 0.2Q286.74-0.54 286.74-3.37L286.74-3.37Q286.74-3.96 287.4-4.25 288.06-4.54 288.99-4.54L288.99-4.54Q289.94-4.54 290.23-4.94 290.53-5.35 290.53-6.08L290.53-6.08 290.53-19.19Q290.53-20.48 289.78-21.02 289.04-21.56 286.91-21.66L286.91-21.66Q286.6-21.73 286.51-21.97 286.43-22.22 286.43-23.02L286.43-23.02Q286.43-24.27 286.69-25.22 286.96-26.17 287.23-26.32L287.23-26.32Q288.84-26.05 290.38-26.05L290.38-26.05Q291.48-26.05 292.7-26.18 293.92-26.32 293.99-26.32L293.99-26.32Q294.85-26.32 295.1-25.89 295.36-25.46 295.36-23.93L295.36-23.93Q295.36-23.75 295.35-23.3 295.34-22.85 295.34-22.58L295.34-22.58Q297.44-24.44 300.1-25.59 302.76-26.73 305.22-26.73L305.22-26.73Q308.64-26.73 310.77-24.32 312.89-21.9 312.89-16.72L312.89-16.72 312.89-6.23Q312.89-4.64 314.11-4.54L314.11-4.54Q314.35-4.52 314.76-4.49 315.16-4.47 315.39-4.44 315.62-4.42 315.97-4.38 316.31-4.35 316.5-4.31 316.7-4.27 316.95-4.21 317.21-4.15 317.36-4.08 317.5-4 317.64-3.91 317.77-3.81 317.83-3.67 317.89-3.54 317.89-3.37L317.89-3.37Q317.89-0.54 317.09 0.2ZM344.63-14.43L344.63-14.43Q344.63-13.31 344.05-12.71 343.48-12.11 341.89-12.11L341.89-12.11 325.05-12.11Q325.14-9.89 325.83-8.28 326.51-6.67 327.63-5.75 328.76-4.83 330.1-4.41 331.44-3.98 333.03-3.98L333.03-3.98Q335.25-3.98 337.57-4.76 339.89-5.54 341.77-6.96L341.77-6.96Q343.16-5.32 343.16-3.74L343.16-3.74Q343.16-2.69 341.77-1.67 340.38-0.66 338.01 0 335.64 0.66 333.08 0.66L333.08 0.66Q330.98 0.66 329.09 0.24 327.19-0.17 325.38-1.21 323.56-2.25 322.24-3.83 320.92-5.42 320.11-7.91 319.31-10.4 319.31-13.55L319.31-13.55Q319.31-16.63 320.48-19.19 321.65-21.75 323.58-23.38 325.51-25 327.89-25.88 330.27-26.76 332.79-26.76L332.79-26.76Q334.64-26.76 336.35-26.29 338.06-25.83 339.57-24.84 341.09-23.85 342.21-22.42 343.33-21 343.98-18.95 344.63-16.89 344.63-14.43ZM325.19-15.89L339.69-15.89Q339.47-19.29 337.56-21.06 335.64-22.83 332.98-22.83L332.98-22.83Q330.15-22.83 327.84-20.94 325.53-19.04 325.19-15.89L325.19-15.89ZM355.34-23.93L355.34-23.93 355.34-22.34Q356.44-24.1 358.61-25.42 360.79-26.73 362.76-26.73L362.76-26.73Q364.06-26.73 365.23-26.31 366.4-25.88 367.27-24.78 368.13-23.68 368.13-22.09L368.13-22.09Q368.13-17.75 363.52-17.75L363.52-17.75Q363.42-17.75 363.32-17.77 363.23-17.8 363.17-17.85 363.1-17.9 363.06-17.94 363.01-17.99 362.97-18.09 362.93-18.19 362.91-18.26 362.89-18.33 362.86-18.49 362.84-18.65 362.82-18.75 362.81-18.85 362.8-19.03 362.79-19.21 362.76-19.34L362.76-19.34 362.47-21.88Q361.81-22.19 361.03-22.19L361.03-22.19Q359.61-22.19 358.19-21.15 356.76-20.12 356.07-18.75L356.07-18.75 356.07-6.4Q356.07-6.03 356.11-5.82 356.15-5.62 356.28-5.35 356.42-5.08 356.76-4.94 357.1-4.81 357.64-4.81L357.64-4.81Q358.56-4.81 359.22-4.52 359.88-4.22 359.88-3.64L359.88-3.64Q359.88-2.47 359.49-1.32 359.1-0.17 358.34 0.2L358.34 0.2Q356.64 0 353.34 0 350.04 0 348.29 0.2L348.29 0.2Q347.48-0.17 347.11-1.31 346.75-2.44 346.75-3.64L346.75-3.64Q346.75-4.22 347.41-4.52 348.07-4.81 348.99-4.81L348.99-4.81Q349.95-4.81 350.24-5.21 350.53-5.62 350.53-6.35L350.53-6.35 350.53-19.19Q350.53-20.48 349.79-21.02 349.04-21.56 346.92-21.66L346.92-21.66Q346.6-21.73 346.52-21.97 346.43-22.22 346.43-23.02L346.43-23.02Q346.43-24.27 346.7-25.22 346.97-26.17 347.24-26.32L347.24-26.32Q348.97-26.05 350.63-26.05L350.63-26.05Q351.65-26.05 352.79-26.18 353.93-26.32 354-26.32L354-26.32Q354.85-26.32 355.1-25.89 355.34-25.46 355.34-23.93ZM387.96-3.32L387.96-3.32Q386.17-1.44 383.45-0.39 380.73 0.66 377.92 0.66L377.92 0.66Q374.43 0.66 372.16-1.2 369.89-3.05 369.89-6.57L369.89-6.57Q369.89-10.33 373.53-12.23L373.53-12.23Q376.26-13.7 382.9-14.77L382.9-14.77Q384.15-14.99 386.95-15.41L386.95-15.41Q386.95-19.56 385.91-21.12 384.86-22.68 381.88-22.68L381.88-22.68Q379.7-22.68 377.04-21.7 374.38-20.73 372.79-18.99L372.79-18.99Q370.82-20.65 370.82-22.24L370.82-22.24Q370.82-23.61 372.7-24.67 374.58-25.73 377.13-26.23 379.68-26.73 382.24-26.73L382.24-26.73Q384.66-26.73 386.48-26.14 388.3-25.54 389.69-24.17 391.08-22.8 391.8-20.41 392.52-18.02 392.52-14.6L392.52-14.6 392.52-6.79Q392.52-5.79 392.68-5.29 392.84-4.79 393.03-4.68 393.23-4.57 393.67-4.52L393.67-4.52Q394.43-4.44 394.79-4.38 395.16-4.32 395.65-4.2 396.13-4.08 396.34-3.88 396.55-3.69 396.55-3.39L396.55-3.39Q396.55-0.51 395.74 0.2L395.74 0.2Q394.57 0 392.69 0L392.69 0Q390.98 0 389.52 0.17L389.52 0.17Q389.35 0.05 389.09-0.17 388.83-0.39 388.4-1.29 387.96-2.2 387.96-3.32ZM379.04-3.69L379.04-3.69Q381.27-3.69 383.85-4.92 386.44-6.15 386.98-7.15L386.98-7.15 386.98-11.47Q380.31-10.28 377.98-9.33 375.65-8.37 375.65-6.64L375.65-6.64Q375.65-3.69 379.04-3.69ZM415.42-4.88L415.42-4.88Q416.15-3.49 416.15-2.27L416.15-2.27Q416.15-1.59 415.55-1.09 414.96-0.59 414-0.32 413.05-0.05 412.1 0.07 411.15 0.2 410.24 0.2L410.24 0.2Q408.88 0.2 407.7-0.2 406.53-0.59 405.47-1.48 404.41-2.37 403.8-4.06 403.19-5.76 403.19-8.11L403.19-8.11 403.19-22.27 402.14-22.27Q399.26-22.27 398.99-22.24L398.99-22.24Q398.18-22.53 398.18-24.12L398.18-24.12Q398.18-26.05 399.4-26.05L399.4-26.05 403.19-26.05Q403.29-26.83 403.37-28.09 403.46-29.35 403.53-30.08 403.6-30.81 403.76-31.81 403.92-32.81 404.2-33.39 404.48-33.96 404.92-34.52 405.36-35.08 406.06-35.34 406.75-35.6 407.7-35.6L407.7-35.6Q408.36-35.6 408.73-35.38L408.73-35.38 408.73-26.05 411.98-26.05Q414.88-26.05 415.03-26.17L415.03-26.17Q416.25-26.17 416.25-24.07L416.25-24.07Q416.25-22.49 415.44-22.19L415.44-22.19Q414.64-22.27 412.29-22.27L412.29-22.27 408.73-22.27 408.73-8.25Q408.73-4.2 411.37-4.2L411.37-4.2Q413.08-4.2 415.42-4.88ZM419.32-7.09Q418.15-9.77 418.15-13.06 418.15-16.36 419.32-19.02 420.49-21.68 422.45-23.33 424.4-24.98 426.82-25.85 429.23-26.73 431.87-26.73L431.87-26.73Q434.48-26.73 436.9-25.85 439.32-24.98 441.26-23.33 443.2-21.68 444.37-19.02 445.54-16.36 445.54-13.06 445.54-9.77 444.37-7.09 443.2-4.42 441.26-2.76 439.32-1.1 436.9-0.22 434.48 0.66 431.87 0.66L431.87 0.66Q429.23 0.66 426.82-0.22 424.4-1.1 422.45-2.76 420.49-4.42 419.32-7.09ZM426.23-20.07Q423.86-17.55 423.86-13.06 423.86-8.57 426.23-6.04 428.6-3.52 431.82-3.52L431.82-3.52Q433.36-3.52 434.78-4.13 436.19-4.74 437.33-5.9 438.46-7.06 439.15-8.91 439.83-10.77 439.83-13.06 439.83-15.36 439.15-17.21 438.46-19.07 437.33-20.21 436.19-21.36 434.78-21.97 433.36-22.58 431.82-22.58L431.82-22.58Q428.6-22.58 426.23-20.07ZM456.31-23.93L456.31-23.93 456.31-22.34Q457.41-24.1 459.58-25.42 461.75-26.73 463.73-26.73L463.73-26.73Q465.02-26.73 466.2-26.31 467.37-25.88 468.23-24.78 469.1-23.68 469.1-22.09L469.1-22.09Q469.1-17.75 464.49-17.75L464.49-17.75Q464.39-17.75 464.29-17.77 464.19-17.8 464.13-17.85 464.07-17.9 464.02-17.94 463.97-17.99 463.94-18.09 463.9-18.19 463.88-18.26 463.85-18.33 463.83-18.49 463.8-18.65 463.79-18.75 463.78-18.85 463.77-19.03 463.75-19.21 463.73-19.34L463.73-19.34 463.44-21.88Q462.78-22.19 462-22.19L462-22.19Q460.58-22.19 459.15-21.15 457.72-20.12 457.04-18.75L457.04-18.75 457.04-6.4Q457.04-6.03 457.08-5.82 457.11-5.62 457.25-5.35 457.38-5.08 457.72-4.94 458.07-4.81 458.6-4.81L458.6-4.81Q459.53-4.81 460.19-4.52 460.85-4.22 460.85-3.64L460.85-3.64Q460.85-2.47 460.46-1.32 460.07-0.17 459.31 0.2L459.31 0.2Q457.6 0 454.31 0 451.01 0 449.25 0.2L449.25 0.2Q448.45-0.17 448.08-1.31 447.71-2.44 447.71-3.64L447.71-3.64Q447.71-4.22 448.37-4.52 449.03-4.81 449.96-4.81L449.96-4.81Q450.91-4.81 451.21-5.21 451.5-5.62 451.5-6.35L451.5-6.35 451.5-19.19Q451.5-20.48 450.75-21.02 450.01-21.56 447.88-21.66L447.88-21.66Q447.57-21.73 447.48-21.97 447.4-22.22 447.4-23.02L447.4-23.02Q447.4-24.27 447.67-25.22 447.93-26.17 448.2-26.32L448.2-26.32Q449.94-26.05 451.6-26.05L451.6-26.05Q452.62-26.05 453.76-26.18 454.89-26.32 454.96-26.32L454.96-26.32Q455.82-26.32 456.06-25.89 456.31-25.46 456.31-23.93Z" opacity="1" transform="matrix(1,0,0,1,0,0)" fill="#ff0000" class="wordmark-text-0" data-fill-palette-color="primary" id="text-0"></path></svg></g></svg></g></svg></g></svg></g><g transform="matrix(1,0,0,1,162.38257423022225,0)"><svg viewBox="0 0 70.75485153955546 54.754680430644406" height="54.754680430644406" width="70.75485153955546"><g><svg xmlns="http://www.w3.org/2000/svg" xmlns:xlink="http://www.w3.org/1999/xlink" version="1.0" x="8" y="0" viewBox="10 10.000250000000001 80 79.99975" enable-background="new 0 0 100 100" xml:space="preserve" height="54.754680430644406" width="54.75485153955546" class="icon-icon-0" data-fill-palette-color="accent" id="icon-0"><path d="M17.272 33.77C12.702 36.478 10 39.772 10 43.333c0 8.246 14.382 15.072 33.249 16.413L17.272 33.77z" fill="#ed2647" data-fill-palette-color="accent"></path><path d="M50 26.667c-2.249 0-4.439 0.098-6.588 0.244L73.347 56.85C83.418 53.821 90 48.903 90 43.333 90 34.128 72.09 26.667 50 26.667z" fill="#ed2647" data-fill-palette-color="accent"></path><path d="M52.871 59.938c4.531-0.134 8.867-0.566 12.858-1.279L18.535 11.465c-1.953-1.953-5.12-1.953-7.07 0-1.953 1.95-1.953 5.117 0 7.07L52.871 59.938z" fill="#ed2647" data-fill-palette-color="accent"></path><path d="M12.236 57.602c2.275 7.181 6.156 13.675 11.098 19.078L23.33 86.995C31.313 88.945 40.258 90 50 90c9.739 0 18.685-1.055 26.663-3.001l0.004-10.319c5.152-5.628 8.867-12.161 11.055-19.053-8.939 5.967-23.379 9.04-37.722 9.04C35.635 66.667 21.172 63.584 12.236 57.602z" fill="#ed2647" data-fill-palette-color="accent"></path></svg></g></svg></g><g><rect width="162.38257423022225" height="3.5729620753008082" y="50.1817183553436" x="233.1374257697777" fill="#ed2647" data-fill-palette-color="accent"></rect><rect width="162.38257423022225" height="3.5729620753008082" y="50.1817183553436" x="0" fill="#ed2647" data-fill-palette-color="accent"></rect><rect width="162.38257423022225" height="3.5729620753008082" y="43.03579420474198" x="233.1374257697777" fill="#ed2647" data-fill-palette-color="accent"></rect><rect width="162.38257423022225" height="3.5729620753008082" y="43.03579420474198" x="0" fill="#ed2647" data-fill-palette-color="accent"></rect></g></svg></g><defs></defs></svg><rect width="395.52" height="103.72786883005773" fill="none" stroke="none" visibility="hidden"></rect></g></svg></g></svg>